Coordinates
version=1
nRows=19
nColumns=36
inDegrees=yes

Units are S.I. units (second, meters, Newtons, ...)
If the header above contains a line with 'inDegrees', this indicates whether rotational values are in degrees (yes) or radians (no).

endheader
time	pelvis_tilt	pelvis_list	pelvis_rotation	pelvis_tx	pelvis_ty	pelvis_tz	hip_flexion_r	hip_adduction_r	hip_rotation_r	knee_angle_r	knee_angle_r_beta	ankle_angle_r	subtalar_angle_r	mtp_angle_r	hip_flexion_l	hip_adduction_l	hip_rotation_l	knee_angle_l	knee_angle_l_beta	ankle_angle_l	subtalar_angle_l	mtp_angle_l	lumbar_extension	lumbar_bending	lumbar_rotation	arm_flex_r	arm_add_r	arm_rot_r	elbow_flex_r	pro_sup_r	arm_flex_l	arm_add_l	arm_rot_l	elbow_flex_l	pro_sup_l
      1.46000000	    -27.15310904	     -3.37391533	     -2.24463908	     -0.29927178	      0.77802899	     -0.58714412	     73.73771224	     -1.69703969	     -5.01747540	     74.26690534	      1.29620202	     21.74612966	     -2.80967770	     -7.45790214	     73.81616456	     -8.36093038	      6.51549232	     82.28611237	      1.43616359	     14.66549074	    -12.79239920	     -7.45790214	    -32.85053790	     -0.72720150	     -3.94745815	     19.94246007	     -5.89926680	      1.95589391	    102.22421902	    101.45274109	     36.05581851	    -11.59467323	     11.37874796	     85.65174801	    109.39062692
      1.47000000	    -26.89343255	     -3.42932133	     -2.18127453	     -0.29663375	      0.77897405	     -0.58710322	     72.84657960	     -1.65212051	     -5.17370553	     73.85422729	      1.28899943	     22.85908917	     -2.77845093	     -7.46676872	     72.72709426	     -8.37240891	      6.34132324	     81.65809867	      1.42520268	     15.98982615	    -12.95699685	     -7.46676872	    -32.27862691	     -0.62965103	     -3.96115548	     19.59809821	     -6.41852701	      1.34442624	    102.77049814	    100.42890376	     35.37952448	    -11.98023016	     11.13509553	     85.92183626	    109.82043214
      1.48000000	    -26.48812765	     -3.55335673	     -2.14110059	     -0.29387903	      0.78003274	     -0.58700205	     71.79649623	     -1.51889607	     -5.30383963	     73.42323361	      1.28147717	     23.88816691	     -2.78919914	     -7.47567942	     71.44715643	     -8.44445555	      6.24617675	     81.01597273	      1.41399547	     17.60026093	    -12.86025037	     -7.47567942	    -31.74649322	     -0.46448667	     -3.93443956	     19.38572944	     -6.98915903	      0.66913914	    103.69677460	    100.32387187	     34.71850697	    -12.46098920	     10.88495236	     86.47812496	    110.11219278
      1.49000000	    -25.88994166	     -3.59608763	     -2.09617292	     -0.29093370	      0.78147008	     -0.58699298	     70.56651443	     -1.42736770	     -5.29767133	     73.02651386	      1.27455311	     25.07520918	     -2.39694844	     -7.47857447	     69.85008722	     -8.42348512	      6.11400766	     80.23936979	      1.40044119	     19.07468523	    -13.15959670	     -7.47857447	    -31.29179453	     -0.35035760	     -3.96656775	     19.30135760	     -7.53292853	     -0.07152088	    105.13369928	     99.51636628	     33.97661966	    -13.14965036	     10.71468760	     87.56990694	    109.85305516
      1.50000000	    -25.19720097	     -3.67617579	     -2.06663606	     -0.28786764	      0.78326450	     -0.58703188	     69.25107001	     -1.28738493	     -5.32545976	     72.60307609	      1.26716272	     25.66312356	     -2.68242553	     -7.47877036	     68.08427034	     -8.39538669	      6.07518302	     79.35145218	      1.38494411	     20.48007100	    -13.62074246	     -7.47877036	    -30.80611714	     -0.14845279	     -3.95093126	     19.24336637	     -8.13896856	     -0.97567961	    107.16638619	     99.72137197	     33.07879796	    -14.05862179	     10.61375857	     89.17753153	    109.99234059
      1.51000000	    -24.45825980	     -3.90502751	     -2.14327712	     -0.28474832	      0.78515720	     -0.58675887	     67.92420738	     -0.97806320	     -5.53154600	     72.23740746	      1.26078060	     26.27482915	     -2.86251080	     -7.47901581	     66.26528509	     -8.59352082	      6.14186502	     78.46700485	      1.36950759	     22.07962637	    -13.82949424	     -7.47901581	    -30.18830266	      0.12994852	     -3.73291907	     18.99668071	     -8.89953711	     -2.00932518	    109.87536288	     99.98483854	     31.94045816	    -15.05967959	     10.54278555	     91.50491263	    110.17663589
      1.52000000	    -24.02690818	     -4.46390858	     -2.38205237	     -0.28199871	      0.78691568	     -0.58554222	     66.85292992	     -0.18414073	     -5.88777329	     71.62283873	      1.25005436	     26.73158275	     -3.14185202	     -7.47919177	     64.87628794	     -9.23824723	      6.43405956	     77.55289927	      1.35355344	     23.55796982	    -14.01380597	     -7.47919177	    -29.02283981	      0.64414010	     -3.26246266	     18.56717085	     -9.69312489	     -3.08679139	    113.04527090	    100.23066395	     30.59460236	    -16.26310863	     10.52551784	     94.24660208	    110.41220139
      1.53000000	    -23.53725747	     -5.11687811	     -2.71066687	     -0.27903263	      0.78937020	     -0.58384220	     65.66746344	      0.82777189	     -6.24529349	     70.93345529	      1.23802234	     26.99564946	     -3.59196662	     -7.47937472	     63.42871033	    -10.09439439	      6.70646848	     76.63747027	      1.33757619	     25.08706571	    -14.02557937	     -7.47937472	    -27.83974199	      1.19052884	     -2.68215707	     18.03454006	    -10.52323523	     -4.40439924	    116.75297222	    100.49026343	     29.10152745	    -17.55929179	     10.45034269	     97.62066350	    110.69730658
      1.54000000	    -22.70677126	     -5.24109334	     -2.98929568	     -0.27505557	      0.79387070	     -0.58308105	     64.03962807	      1.34252365	     -6.22834510	     70.12833562	      1.22397036	     26.97223514	     -4.03096127	     -7.47958756	     61.24096288	    -10.44878175	      6.45922459	     75.36229560	      1.31532019	     26.46710989	    -13.89945203	     -7.47958756	    -26.94605558	      1.33684259	     -2.34500593	     17.44660770	    -11.32263157	     -5.82063118	    120.62281494	    100.76915187	     27.57166742	    -18.94610011	     10.36488684	    101.13554275	    110.96346771
      1.55000000	    -21.70194046	     -4.81045632	     -3.10891656	     -0.27005397	      0.80034999	     -0.58358672	     62.08434114	      1.22466782	     -5.80468737	     69.16954899	      1.20723637	     26.82102464	     -4.19545964	     -7.47978548	     58.56214452	    -10.11336984	      5.78726593	     73.72106998	      1.28667540	     27.29517796	    -13.94488509	     -7.47978548	    -26.11810909	      1.04382142	     -2.38817952	     16.70593480	    -12.18510472	     -7.22245265	    124.45625341	    101.05885532	     25.98714385	    -20.46658503	     10.45974117	    104.66907431	    111.21698926
      1.56000000	    -20.90095114	     -4.34213383	     -3.16242511	     -0.26483441	      0.80786984	     -0.58410609	     60.21507292	      0.96665538	     -5.45199304	     67.96871309	      1.18627783	     26.52529970	     -4.19115030	     -7.48001320	     56.18325053	     -9.66076007	      5.18482134	     71.99618043	      1.25657040	     27.34951445	    -14.05488489	     -7.48001320	    -24.92106216	      0.68740608	     -2.49731599	     15.66419458	    -13.12921839	     -8.60881781	    128.07726324	    101.34023415	     24.28107282	    -22.14871716	     10.67011593	    108.24353865	    111.42746770
      1.57000000	    -20.50637411	     -4.23436194	     -3.23058564	     -0.25977563	      0.81612938	     -0.58362886	     58.56446259	      1.10678399	     -5.29647875	     66.30618294	      1.15726121	     25.91278815	     -4.08713047	     -7.48018518	     54.47254056	     -9.63519831	      4.88129696	     70.28055566	      1.22662710	     26.66845342	    -14.01448773	     -7.48018518	    -23.17593150	      0.66384895	     -2.46370438	     14.31249028	    -14.11391916	     -9.66851719	    131.43221131	    101.59028040	     22.40799441	    -23.89682450	     10.93463511	    111.78177312	    111.65270958
      1.58000000	    -20.02697063	     -4.21682803	     -3.31440074	     -0.25449695	      0.82614452	     -0.58265900	     56.66478889	      1.33166651	     -5.27168262	     64.30534298	      1.12233996	     24.79743427	     -3.98773116	     -7.48036346	     52.63268853	     -9.82113855	      4.50864420	     68.36721109	      1.19323293	     25.39086718	    -13.92934939	     -7.48036346	    -21.56134412	      0.66808696	     -2.39617378	     12.80167455	    -15.17587226	    -10.54086590	    134.55029912	    101.83613922	     20.44606297	    -25.68574587	     11.06006298	    115.32128902	    111.83405019
      1.59000000	    -19.21077413	     -3.99845134	     -3.22739999	     -0.24877496	      0.83856015	     -0.58246546	     54.25063896	      1.15051180	     -5.30700978	     61.97979154	      1.08175143	     22.50875789	     -4.83962155	     -7.48128441	     50.17070982	     -9.63306473	      3.95114455	     65.85168153	      1.14932866	     22.28787561	    -15.50068563	     -7.48128441	    -20.35405027	      0.54952113	     -2.85596757	     11.60590381	    -16.24662241	    -10.72460001	    136.94489471	    102.33700101	     17.98800206	    -27.43852277	     10.59705701	    118.94679964	    111.28657679
      1.60000000	    -18.30287269	     -3.63872192	     -3.02261157	     -0.24265275	      0.85279622	     -0.58272939	     51.51677554	      0.61825020	     -5.48096119	     59.27440923	      1.03453360	     20.74491906	     -4.37740187	     -7.48190241	     47.39878190	     -9.30072485	      3.17340138	     62.91048864	      1.09799516	     19.96214467	    -15.62370303	     -7.48190241	    -19.24568105	      0.31380440	     -3.31220858	      9.94980142	    -17.47433602	    -10.67872575	    139.00733076	    102.77598220	     15.57617475	    -29.04700698	     10.33734874	    121.98331488	    111.08526343
      1.61000000	    -17.71597127	     -3.36762901	     -2.83056694	     -0.23626195	      0.86804026	     -0.58251473	     48.86934223	      0.22350046	     -5.76359562	     56.07348874	      0.97866700	     18.92577917	     -3.47865314	     -7.48207452	     44.78486895	     -9.17954482	      2.33837680	     59.55592182	      1.03944692	     17.97533328	    -14.58656548	     -7.48207452	    -17.76107018	      0.11791729	     -3.44524383	      7.52890873	    -18.64168647	    -10.54434607	    140.89356344	    102.97842250	     13.26827465	    -30.35041191	     10.44369164	    124.46995587	    111.13790428
      1.62000000	    -16.95064567	     -3.11330248	     -2.79357244	     -0.22943093	      0.88535633	     -0.58134671	     45.70900013	      0.07178898	     -5.94053813	     52.21671071	      0.91135353	     16.17399320	     -2.58887076	     -7.48228613	     41.60486842	     -9.41333419	      0.96922479	     55.48157406	      0.96833614	     14.96382374	    -13.57963822	     -7.48228613	    -16.60327144	     -0.27606749	     -3.55122106	      5.03336758	    -19.64923889	    -10.14630172	    142.21805396	    103.23530808	     10.54819153	    -31.57329527	     10.24013803	    126.74375051	    111.11510819
      1.63000000	    -16.33154449	     -2.84586023	     -2.88763408	     -0.22246076	      0.90415119	     -0.57980356	     42.37910472	      0.10919421	     -5.97115497	     47.53898916	      0.82971188	     12.19218050	     -2.94658196	     -7.48424175	     38.20724653	     -9.65409646	     -0.61479796	     50.59409971	      0.88303362	     10.06230720	    -14.21594264	     -7.48424175	    -15.32096039	     -0.59170082	     -5.70040585	      4.91376349	    -20.36061287	     -6.26348897	    141.06858149	    105.03965095	      3.98459852	    -32.66170447	      6.34038862	    130.26791435	    110.34442358
      1.64000000	    -15.66759882	     -2.56935083	     -3.04292424	     -0.21539867	      0.92443811	     -0.57805914	     38.66471009	      0.23782858	     -5.76278064	     42.10726817	      0.73491047	      8.04147059	     -2.33940609	     -7.48593779	     34.45911514	     -9.97899130	     -2.59339983	     45.11081177	      0.78733219	      5.78797717	    -12.60761501	     -7.48593779	    -14.14958071	     -0.97496593	     -6.86645739	      3.55810265	    -20.98003977	     -3.55221890	    140.12887530	    106.11436134	     -1.23950964	    -32.92727115	      3.94621231	    132.21068429	    110.33475673
